<svg width="512" height="512" viewBox="0 0 512 512" fill="none" xmlns="http://www.w3.org/2000/svg">
<path d="M422.502 191.995H367.017C347.354 191.995 331.414 208.1 331.414 227.966V284.024C331.414 303.89 347.354 319.995 367.017 319.995H422.502C442.165 319.995 458.105 303.89 458.105 284.024V227.966C458.105 208.1 442.165 191.995 422.502 191.995Z" fill="white"/>
<path d="M307.123 156.029V99.9708C307.123 80.0389 291.248 64 271.52 64H216.035C196.307 64 180.432 80.0389 180.432 99.9708V156.029C180.432 175.961 164.557 192 144.829 192H89.4976C69.7695 192 53.8945 208.039 53.8945 227.971V284.029C53.8945 303.961 69.7695 320 89.4976 320H144.829C164.557 320 180.432 336.039 180.432 355.971V412.029C180.432 431.961 196.307 448 216.035 448H271.52C291.248 448 307.123 431.961 307.123 412.029V355.971C307.123 336.039 291.248 320 271.52 320H216.189C196.461 320 180.586 303.961 180.586 284.029V227.971C180.586 208.039 196.461 192 216.189 192H271.52C291.248 192 307.123 175.961 307.123 156.029Z" fill="#E3FB51"/>
</svg>
