<svg width="128" height="128" viewBox="0 0 128 128" fill="none" xmlns="http://www.w3.org/2000/svg">
<path d="M105.626 47.9985H91.7543C86.8385 47.9985 82.8535 52.0247 82.8535 56.9912V71.0058C82.8535 75.9724 86.8385 79.9985 91.7543 79.9985H105.626C110.541 79.9985 114.526 75.9724 114.526 71.0058V56.9912C114.526 52.0247 110.541 47.9985 105.626 47.9985Z" fill="white"/>
<path d="M76.7808 39.0073V24.9927C76.7808 20.0097 72.8121 16 67.8801 16H54.0087C49.0767 16 45.108 20.0097 45.108 24.9927V39.0073C45.108 43.9903 41.1392 48 36.2072 48H22.3744C17.4424 48 13.4736 52.0097 13.4736 56.9927V71.0073C13.4736 75.9903 17.4424 80 22.3744 80H36.2072C41.1392 80 45.108 84.0097 45.108 88.9927V103.007C45.108 107.99 49.0767 112 54.0087 112H67.8801C72.8121 112 76.7808 107.99 76.7808 103.007V88.9927C76.7808 84.0097 72.8121 80 67.8801 80H54.0473C49.1152 80 45.1465 75.9903 45.1465 71.0073V56.9927C45.1465 52.0097 49.1152 48 54.0473 48H67.8801C72.8121 48 76.7808 43.9903 76.7808 39.0073Z" fill="#E3FB51"/>
</svg>
