<svg width="256" height="256" viewBox="0 0 256 256" fill="none" xmlns="http://www.w3.org/2000/svg">
<path d="M211.251 95.9976H183.509C173.677 95.9976 165.707 104.05 165.707 113.983V142.012C165.707 151.945 173.677 159.998 183.509 159.998H211.251C221.083 159.998 229.053 151.945 229.053 142.012V113.983C229.053 104.05 221.083 95.9976 211.251 95.9976Z" fill="white"/>
<path d="M153.562 78.0146V49.9854C153.562 40.0195 145.624 32 135.76 32H108.017C98.1534 32 90.2159 40.0195 90.2159 49.9854V78.0146C90.2159 87.9805 82.2784 96 72.4144 96H44.7488C34.8847 96 26.9473 104.019 26.9473 113.985V142.015C26.9473 151.981 34.8847 160 44.7488 160H72.4144C82.2784 160 90.2159 168.019 90.2159 177.985V206.015C90.2159 215.981 98.1534 224 108.017 224H135.76C145.624 224 153.562 215.981 153.562 206.015V177.985C153.562 168.019 145.624 160 135.76 160H108.095C98.2305 160 90.293 151.981 90.293 142.015V113.985C90.293 104.019 98.2305 96 108.095 96H135.76C145.624 96 153.562 87.9805 153.562 78.0146Z" fill="#E3FB51"/>
</svg>
